<svg xmlns="http://www.w3.org/2000/svg" version="1.1" xmlns:xlink="http://www.w3.org/1999/xlink" xmlns:svgjs="http://svgjs.dev/svgjs" width="1440" height="560" preserveAspectRatio="none" viewBox="0 0 1440 560"><g mask="url(&quot;#SvgjsMask2318&quot;)" fill="none"><use xlink:href="#SvgjsG2326" transform="translate(0, 0)" fill="rgba(64, 65, 152, 1)"></use><use xlink:href="#SvgjsG2326" transform="translate(0, 338.00000000000006)" fill="rgba(64, 65, 152, 1)"></use><use xlink:href="#SvgjsG2326" transform="translate(338.00000000000006, 0)" fill="rgba(64, 65, 152, 1)"></use><use xlink:href="#SvgjsG2326" transform="translate(338.00000000000006, 338.00000000000006)" fill="rgba(64, 65, 152, 1)"></use><use xlink:href="#SvgjsG2326" transform="translate(676.0000000000001, 0)" fill="rgba(64, 65, 152, 1)"></use><use xlink:href="#SvgjsG2326" transform="translate(676.0000000000001, 338.00000000000006)" fill="rgba(64, 65, 152, 1)"></use><use xlink:href="#SvgjsG2326" transform="translate(1014.0000000000002, 0)" fill="rgba(64, 65, 152, 1)"></use><use xlink:href="#SvgjsG2326" transform="translate(1014.0000000000002, 338.00000000000006)" fill="rgba(64, 65, 152, 1)"></use><use xlink:href="#SvgjsG2326" transform="translate(1352.0000000000002, 0)" fill="rgba(64, 65, 152, 1)"></use><use xlink:href="#SvgjsG2326" transform="translate(1352.0000000000002, 338.00000000000006)" fill="rgba(64, 65, 152, 1)"></use></g><defs><mask id="SvgjsMask2318"><rect width="1440" height="560" fill="#ffffff"></rect></mask><g id="SvgjsG2320"><path d="M1.07 12l0 0c-1.07-1.85-1.35-4.01-0.8-6.07C0.83 3.86 2.15 2.14 4 1.07 5.85 0 8.01-0.28 10.07 0.27 12.13 0.82 13.86 2.14 14.92 3.99l0.01 0.01C16 5.85 16.28 8.01 15.73 10.07c-0.55 2.06-1.88 3.79-3.73 4.86-1.85 1.07-4.01 1.35-6.07 0.79-2.06-0.55-3.79-1.88-4.86-3.72z m12.26-7.09c-0.82-1.42-2.15-2.44-3.74-2.87-1.59-0.42-3.25-0.21-4.67 0.62-1.43 0.82-2.45 2.15-2.87 3.74-0.43 1.59-0.21 3.25 0.61 4.68 1.7 2.94 5.48 3.95 8.43 2.25 2.94-1.7 3.95-5.47 2.25-8.41l-0.01-0.01z"></path><path d="M9.09 8.17L10.64 7.27c0.22 0.46-0.02 1.06-0.44 1.36l0.85 1.47c1.51-0.87 1.51-2.7 1.02-3.67l1.02-0.59L12.28 4.44l-1.02 0.59c-0.24-0.41-1.84-1.97-3.52-0.99-1.5 0.86-1.14 2.44-0.74 3.44l-1.69 0.98c-0.2-0.79 0.25-1.21 0.63-1.55l-0.87-1.5c-1.63 1.07-1.56 3.01-1.21 3.89l-1.04 0.6 0.82 1.42 1.02-0.59c0.71 1.09 2.44 1.85 3.77 1.09 1.52-0.88 1.19-2.45 0.66-3.65zM8.52 6.62c-0.56-1.01 0.52-1.66 1.29-0.75l-1.29 0.75z m-2.39 3.28L7.59 9.06c0.68 1.26-0.47 2.1-1.46 0.84z"></path></g><g id="SvgjsG2323"><path d="M14.78 13.28l-9.6 4.03L2.96 13.48 11.25 7.18l2.71 4.68L17.73 10.92 17.88 11.53l-3.6 0.9 0.5 0.85zM5.73 9.65s1.38-0.61 0.24-2.6L4.14 3.88c-1.15-1.99-2.37-1.09-2.37-1.1l3.96 6.87zM-0.66 4.19s-1.39 0.61-0.24 2.6l1.83 3.17c1.15 1.99 2.37 1.09 2.37 1.09L-0.66 4.19z m4.42 6.2a0.68 0.68 0 0 0 0.93 0.25c0.32-0.19 0.43-0.6 0.24-0.93L1.3 3.42C1.11 3.09 0.7 2.98 0.37 3.17a0.68 0.68 0 0 0-0.25 0.92l3.64 6.3z"></path></g><g id="SvgjsG2321"><path d="M1.37 11.49C-0.75 7.81 0.51 3.08 4.2 0.96 7.89-1.17 12.61 0.09 14.74 3.78S15.6 12.19 11.92 14.32c-3.69 2.13-8.41 0.86-10.55-2.83z m1.66-0.95c1.6 2.77 5.16 3.73 7.93 2.13 2.77-1.6 3.72-5.16 2.13-7.94-1.6-2.77-5.16-3.72-7.93-2.12-2.78 1.6-3.73 5.16-2.13 7.93z"></path><path d="M7.19 8.18a0.57 0.57 0 0 1-0.24-0.5 0.58 0.58 0 0 1 0.22-0.42L11.05 5.01a0.58 0.58 0 0 1 0.58 1l-3.01 1.74 2.7 1.88a0.58 0.58 0 0 1 0.15 0.8c-0.18 0.27-0.55 0.33-0.81 0.15l-3.46-2.4z"></path></g><g id="SvgjsG2324"><path d="M9.14 15.76l0.08-7.82L9.8 7.6c0.67-0.38 0.54-1.28 0.54-1.28-0.04-0.6 0.48-0.84 0.47-0.84 0.58-0.33 1.06 0.08 1.2 0.3 0.22 0.39 0.23 0.89-0.24 1.22-0.74 0.51-0.03 1.27 0.59 0.91C12.94 7.58 13.66 6.45 12.96 5.23 12.2 3.91 10.69 4.27 10.28 4.51c-0.31 0.18-0.56 0.39-0.78 0.77-0.36 0.64-0.08 1.34-0.44 1.54l-0.37 0.22L1.83 3.13C1.15 2.75 0.36 3.07-0.01 3.45c-0.36 0.37-0.62 1.1-0.17 1.88l6.36 11.02c0.5 0.87 1.23 0.98 1.73 0.85 0.51-0.13 1.2-0.53 1.23-1.44z m-1.98 0.05L0.79 4.78c-0.22-0.35 0.15-0.86 0.58-0.63L8.05 7.96l-0.04 7.65c-0.05 0.5-0.63 0.58-0.85 0.2z"></path></g><g id="SvgjsG2322"><path d="M-1.42 4.51l7.73 13.39L4.94 18.7-2.79 5.3z m1.65-0.22l6.99 12.12-0.75 0.44L-0.53 4.73z m7.27-2.88l1.17 2.03-6.11 3.53-1.17-2.04z m2.34 4.06l1.18 2.04-6.11 3.52-1.18-2.03z m2.26 3.91l1.18 2.04-6.11 3.52L5.99 12.91zM7.81-1.13L14.93 4l0.88 8.73-0.8 0.45L7-0.66z"></path></g><g id="SvgjsG2325"><path d="M1.62 9.63L3.86 1.26l3.13 0.84-2.24 8.36z"></path><path d="M15.17 13.25L3.34 10.08l0.9-3.34L16.06 9.91z"></path></g><g id="SvgjsG2319"><path d="M-2.03 4.6l7.87 13.62L18.81 10.73 10.95-2.89l-12.98 7.49zM8.67-0.02c0.96-0.55 2.18-0.23 2.74 0.73l4.52 7.83a2 2 0 0 1-0.73 2.73L10.49 13.99 9.88 12.94l1.4-1.67a0.32 0.32 0 0 0-0.3-0.52c-0.13 0.02-0.63 0.12-1.25 0.24 1-0.95 3.1-2.94 3.11-2.94a0.32 0.32 0 0 0 0.04-0.41c-0.08-0.13-0.25-0.18-0.39-0.11s-4.24 1.85-5.45 2.38c0.22-0.43 0.43-0.87 0.43-0.87a0.32 0.32 0 0 0-0.01-0.3l-0.61-1.06a1168.61 1168.61 0 0 0 1.4-1.67 0.32 0.32 0 0 0 0.02-0.36 0.31 0.31 0 0 0-0.33-0.15l-1.24 0.23c1-0.94 3.1-2.94 3.1-2.94a0.32 0.32 0 0 0-0.34-0.52c0 0-4.24 1.85-5.45 2.38L4.44 3.78a0.32 0.32 0 0 0-0.01-0.29L3.97 2.69 8.67-0.02z m-3.42 14.73L0.73 6.88a2 2 0 0 1 0.73-2.74l1.96-1.13 0.37 0.64c-0.12 0.25-0.74 1.49-0.74 1.5a0.32 0.32 0 0 0 0.41 0.43c0.12-0.05 2.8-1.22 4.59-2-1.15 1.09-2.57 2.43-2.57 2.43-0.1 0.1-0.13 0.25-0.06 0.37 0.06 0.13 0.2 0.19 0.34 0.17 0 0 0.76-0.14 1.43-0.27-0.45 0.54-0.97 1.17-0.97 1.17a0.31 0.31 0 0 0-0.03 0.36l0.64 1.1c-0.12 0.25-0.74 1.5-0.74 1.49a0.32 0.32 0 0 0 0.05 0.36c0.09 0.1 0.23 0.13 0.36 0.07s2.8-1.22 4.59-2c-1.15 1.09-2.57 2.43-2.57 2.43-0.1 0.1-0.13 0.25-0.07 0.37 0.06 0.13 0.2 0.19 0.34 0.17 0 0 0.76-0.14 1.44-0.26-0.45 0.54-0.97 1.16-0.97 1.16a0.32 0.32 0 0 0-0.03 0.36l0.71 1.24-1.95 1.14a2 2 0 0 1-2.74-0.74z" fill-rule="evenodd"></path></g><g id="SvgjsG2326"><use xlink:href="#SvgjsG2319" transform="translate(0, 0) scale(1.3)" fill="rgba(64, 65, 152, 1)"></use><use xlink:href="#SvgjsG2320" transform="translate(0, 33.800000000000004) scale(1.3)" fill="rgba(64, 65, 152, 1)"></use><use xlink:href="#SvgjsG2321" transform="translate(0, 67.60000000000001) scale(1.3)" fill="rgba(64, 65, 152, 1)"></use><use xlink:href="#SvgjsG2319" transform="translate(0, 101.4) scale(1.3)" fill="rgba(64, 65, 152, 1)"></use><use xlink:href="#SvgjsG2322" transform="translate(0, 135.20000000000002) scale(1.3)" fill="rgba(64, 65, 152, 1)"></use><use xlink:href="#SvgjsG2320" transform="translate(0, 169.00000000000003) scale(1.3)" fill="rgba(64, 65, 152, 1)"></use><use xlink:href="#SvgjsG2322" transform="translate(0, 202.8) scale(1.3)" fill="rgba(64, 65, 152, 1)"></use><use xlink:href="#SvgjsG2323" transform="translate(0, 236.60000000000002) scale(1.3)" fill="rgba(64, 65, 152, 1)"></use><use xlink:href="#SvgjsG2324" transform="translate(0, 270.40000000000003) scale(1.3)" fill="rgba(64, 65, 152, 1)"></use><use xlink:href="#SvgjsG2321" transform="translate(0, 304.20000000000005) scale(1.3)" fill="rgba(64, 65, 152, 1)"></use><use xlink:href="#SvgjsG2319" transform="translate(33.800000000000004, 0) scale(1.3)" fill="rgba(64, 65, 152, 1)"></use><use xlink:href="#SvgjsG2324" transform="translate(33.800000000000004, 33.800000000000004) scale(1.3)" fill="rgba(64, 65, 152, 1)"></use><use xlink:href="#SvgjsG2322" transform="translate(33.800000000000004, 67.60000000000001) scale(1.3)" fill="rgba(64, 65, 152, 1)"></use><use xlink:href="#SvgjsG2324" transform="translate(33.800000000000004, 101.4) scale(1.3)" fill="rgba(64, 65, 152, 1)"></use><use xlink:href="#SvgjsG2320" transform="translate(33.800000000000004, 135.20000000000002) scale(1.3)" fill="rgba(64, 65, 152, 1)"></use><use xlink:href="#SvgjsG2321" transform="translate(33.800000000000004, 169.00000000000003) scale(1.3)" fill="rgba(64, 65, 152, 1)"></use><use xlink:href="#SvgjsG2319" transform="translate(33.800000000000004, 202.8) scale(1.3)" fill="rgba(64, 65, 152, 1)"></use><use xlink:href="#SvgjsG2321" transform="translate(33.800000000000004, 236.60000000000002) scale(1.3)" fill="rgba(64, 65, 152, 1)"></use><use xlink:href="#SvgjsG2322" transform="translate(33.800000000000004, 270.40000000000003) scale(1.3)" fill="rgba(64, 65, 152, 1)"></use><use xlink:href="#SvgjsG2325" transform="translate(33.800000000000004, 304.20000000000005) scale(1.3)" fill="rgba(64, 65, 152, 1)"></use><use xlink:href="#SvgjsG2324" transform="translate(67.60000000000001, 0) scale(1.3)" fill="rgba(64, 65, 152, 1)"></use><use xlink:href="#SvgjsG2319" transform="translate(67.60000000000001, 33.800000000000004) scale(1.3)" fill="rgba(64, 65, 152, 1)"></use><use xlink:href="#SvgjsG2322" transform="translate(67.60000000000001, 67.60000000000001) scale(1.3)" fill="rgba(64, 65, 152, 1)"></use><use xlink:href="#SvgjsG2319" transform="translate(67.60000000000001, 101.4) scale(1.3)" fill="rgba(64, 65, 152, 1)"></use><use xlink:href="#SvgjsG2324" transform="translate(67.60000000000001, 135.20000000000002) scale(1.3)" fill="rgba(64, 65, 152, 1)"></use><use xlink:href="#SvgjsG2321" transform="translate(67.60000000000001, 169.00000000000003) scale(1.3)" fill="rgba(64, 65, 152, 1)"></use><use xlink:href="#SvgjsG2323" transform="translate(67.60000000000001, 202.8) scale(1.3)" fill="rgba(64, 65, 152, 1)"></use><use xlink:href="#SvgjsG2320" transform="translate(67.60000000000001, 236.60000000000002) scale(1.3)" fill="rgba(64, 65, 152, 1)"></use><use xlink:href="#SvgjsG2319" transform="translate(67.60000000000001, 270.40000000000003) scale(1.3)" fill="rgba(64, 65, 152, 1)"></use><use xlink:href="#SvgjsG2324" transform="translate(67.60000000000001, 304.20000000000005) scale(1.3)" fill="rgba(64, 65, 152, 1)"></use><use xlink:href="#SvgjsG2322" transform="translate(101.4, 0) scale(1.3)" fill="rgba(64, 65, 152, 1)"></use><use xlink:href="#SvgjsG2324" transform="translate(101.4, 33.800000000000004) scale(1.3)" fill="rgba(64, 65, 152, 1)"></use><use xlink:href="#SvgjsG2319" transform="translate(101.4, 67.60000000000001) scale(1.3)" fill="rgba(64, 65, 152, 1)"></use><use xlink:href="#SvgjsG2322" transform="translate(101.4, 101.4) scale(1.3)" fill="rgba(64, 65, 152, 1)"></use><use xlink:href="#SvgjsG2324" transform="translate(101.4, 135.20000000000002) scale(1.3)" fill="rgba(64, 65, 152, 1)"></use><use xlink:href="#SvgjsG2324" transform="translate(101.4, 169.00000000000003) scale(1.3)" fill="rgba(64, 65, 152, 1)"></use><use xlink:href="#SvgjsG2322" transform="translate(101.4, 202.8) scale(1.3)" fill="rgba(64, 65, 152, 1)"></use><use xlink:href="#SvgjsG2321" transform="translate(101.4, 236.60000000000002) scale(1.3)" fill="rgba(64, 65, 152, 1)"></use><use xlink:href="#SvgjsG2325" transform="translate(101.4, 270.40000000000003) scale(1.3)" fill="rgba(64, 65, 152, 1)"></use><use xlink:href="#SvgjsG2320" transform="translate(101.4, 304.20000000000005) scale(1.3)" fill="rgba(64, 65, 152, 1)"></use><use xlink:href="#SvgjsG2320" transform="translate(135.20000000000002, 0) scale(1.3)" fill="rgba(64, 65, 152, 1)"></use><use xlink:href="#SvgjsG2324" transform="translate(135.20000000000002, 33.800000000000004) scale(1.3)" fill="rgba(64, 65, 152, 1)"></use><use xlink:href="#SvgjsG2324" transform="translate(135.20000000000002, 67.60000000000001) scale(1.3)" fill="rgba(64, 65, 152, 1)"></use><use xlink:href="#SvgjsG2324" transform="translate(135.20000000000002, 101.4) scale(1.3)" fill="rgba(64, 65, 152, 1)"></use><use xlink:href="#SvgjsG2325" transform="translate(135.20000000000002, 135.20000000000002) scale(1.3)" fill="rgba(64, 65, 152, 1)"></use><use xlink:href="#SvgjsG2324" transform="translate(135.20000000000002, 169.00000000000003) scale(1.3)" fill="rgba(64, 65, 152, 1)"></use><use xlink:href="#SvgjsG2321" transform="translate(135.20000000000002, 202.8) scale(1.3)" fill="rgba(64, 65, 152, 1)"></use><use xlink:href="#SvgjsG2323" transform="translate(135.20000000000002, 236.60000000000002) scale(1.3)" fill="rgba(64, 65, 152, 1)"></use><use xlink:href="#SvgjsG2322" transform="translate(135.20000000000002, 270.40000000000003) scale(1.3)" fill="rgba(64, 65, 152, 1)"></use><use xlink:href="#SvgjsG2320" transform="translate(135.20000000000002, 304.20000000000005) scale(1.3)" fill="rgba(64, 65, 152, 1)"></use><use xlink:href="#SvgjsG2320" transform="translate(169.00000000000003, 0) scale(1.3)" fill="rgba(64, 65, 152, 1)"></use><use xlink:href="#SvgjsG2324" transform="translate(169.00000000000003, 33.800000000000004) scale(1.3)" fill="rgba(64, 65, 152, 1)"></use><use xlink:href="#SvgjsG2324" transform="translate(169.00000000000003, 67.60000000000001) scale(1.3)" fill="rgba(64, 65, 152, 1)"></use><use xlink:href="#SvgjsG2320" transform="translate(169.00000000000003, 101.4) scale(1.3)" fill="rgba(64, 65, 152, 1)"></use><use xlink:href="#SvgjsG2324" transform="translate(169.00000000000003, 135.20000000000002) scale(1.3)" fill="rgba(64, 65, 152, 1)"></use><use xlink:href="#SvgjsG2323" transform="translate(169.00000000000003, 169.00000000000003) scale(1.3)" fill="rgba(64, 65, 152, 1)"></use><use xlink:href="#SvgjsG2323" transform="translate(169.00000000000003, 202.8) scale(1.3)" fill="rgba(64, 65, 152, 1)"></use><use xlink:href="#SvgjsG2320" transform="translate(169.00000000000003, 236.60000000000002) scale(1.3)" fill="rgba(64, 65, 152, 1)"></use><use xlink:href="#SvgjsG2321" transform="translate(169.00000000000003, 270.40000000000003) scale(1.3)" fill="rgba(64, 65, 152, 1)"></use><use xlink:href="#SvgjsG2320" transform="translate(169.00000000000003, 304.20000000000005) scale(1.3)" fill="rgba(64, 65, 152, 1)"></use><use xlink:href="#SvgjsG2320" transform="translate(202.8, 0) scale(1.3)" fill="rgba(64, 65, 152, 1)"></use><use xlink:href="#SvgjsG2324" transform="translate(202.8, 33.800000000000004) scale(1.3)" fill="rgba(64, 65, 152, 1)"></use><use xlink:href="#SvgjsG2323" transform="translate(202.8, 67.60000000000001) scale(1.3)" fill="rgba(64, 65, 152, 1)"></use><use xlink:href="#SvgjsG2320" transform="translate(202.8, 101.4) scale(1.3)" fill="rgba(64, 65, 152, 1)"></use><use xlink:href="#SvgjsG2323" transform="translate(202.8, 135.20000000000002) scale(1.3)" fill="rgba(64, 65, 152, 1)"></use><use xlink:href="#SvgjsG2322" transform="translate(202.8, 169.00000000000003) scale(1.3)" fill="rgba(64, 65, 152, 1)"></use><use xlink:href="#SvgjsG2321" transform="translate(202.8, 202.8) scale(1.3)" fill="rgba(64, 65, 152, 1)"></use><use xlink:href="#SvgjsG2322" transform="translate(202.8, 236.60000000000002) scale(1.3)" fill="rgba(64, 65, 152, 1)"></use><use xlink:href="#SvgjsG2325" transform="translate(202.8, 270.40000000000003) scale(1.3)" fill="rgba(64, 65, 152, 1)"></use><use xlink:href="#SvgjsG2322" transform="translate(202.8, 304.20000000000005) scale(1.3)" fill="rgba(64, 65, 152, 1)"></use><use xlink:href="#SvgjsG2324" transform="translate(236.60000000000002, 0) scale(1.3)" fill="rgba(64, 65, 152, 1)"></use><use xlink:href="#SvgjsG2324" transform="translate(236.60000000000002, 33.800000000000004) scale(1.3)" fill="rgba(64, 65, 152, 1)"></use><use xlink:href="#SvgjsG2323" transform="translate(236.60000000000002, 67.60000000000001) scale(1.3)" fill="rgba(64, 65, 152, 1)"></use><use xlink:href="#SvgjsG2322" transform="translate(236.60000000000002, 101.4) scale(1.3)" fill="rgba(64, 65, 152, 1)"></use><use xlink:href="#SvgjsG2321" transform="translate(236.60000000000002, 135.20000000000002) scale(1.3)" fill="rgba(64, 65, 152, 1)"></use><use xlink:href="#SvgjsG2323" transform="translate(236.60000000000002, 169.00000000000003) scale(1.3)" fill="rgba(64, 65, 152, 1)"></use><use xlink:href="#SvgjsG2321" transform="translate(236.60000000000002, 202.8) scale(1.3)" fill="rgba(64, 65, 152, 1)"></use><use xlink:href="#SvgjsG2325" transform="translate(236.60000000000002, 236.60000000000002) scale(1.3)" fill="rgba(64, 65, 152, 1)"></use><use xlink:href="#SvgjsG2325" transform="translate(236.60000000000002, 270.40000000000003) scale(1.3)" fill="rgba(64, 65, 152, 1)"></use><use xlink:href="#SvgjsG2324" transform="translate(236.60000000000002, 304.20000000000005) scale(1.3)" fill="rgba(64, 65, 152, 1)"></use><use xlink:href="#SvgjsG2323" transform="translate(270.40000000000003, 0) scale(1.3)" fill="rgba(64, 65, 152, 1)"></use><use xlink:href="#SvgjsG2320" transform="translate(270.40000000000003, 33.800000000000004) scale(1.3)" fill="rgba(64, 65, 152, 1)"></use><use xlink:href="#SvgjsG2325" transform="translate(270.40000000000003, 67.60000000000001) scale(1.3)" fill="rgba(64, 65, 152, 1)"></use><use xlink:href="#SvgjsG2321" transform="translate(270.40000000000003, 101.4) scale(1.3)" fill="rgba(64, 65, 152, 1)"></use><use xlink:href="#SvgjsG2321" transform="translate(270.40000000000003, 135.20000000000002) scale(1.3)" fill="rgba(64, 65, 152, 1)"></use><use xlink:href="#SvgjsG2325" transform="translate(270.40000000000003, 169.00000000000003) scale(1.3)" fill="rgba(64, 65, 152, 1)"></use><use xlink:href="#SvgjsG2324" transform="translate(270.40000000000003, 202.8) scale(1.3)" fill="rgba(64, 65, 152, 1)"></use><use xlink:href="#SvgjsG2323" transform="translate(270.40000000000003, 236.60000000000002) scale(1.3)" fill="rgba(64, 65, 152, 1)"></use><use xlink:href="#SvgjsG2320" transform="translate(270.40000000000003, 270.40000000000003) scale(1.3)" fill="rgba(64, 65, 152, 1)"></use><use xlink:href="#SvgjsG2322" transform="translate(270.40000000000003, 304.20000000000005) scale(1.3)" fill="rgba(64, 65, 152, 1)"></use><use xlink:href="#SvgjsG2319" transform="translate(304.20000000000005, 0) scale(1.3)" fill="rgba(64, 65, 152, 1)"></use><use xlink:href="#SvgjsG2320" transform="translate(304.20000000000005, 33.800000000000004) scale(1.3)" fill="rgba(64, 65, 152, 1)"></use><use xlink:href="#SvgjsG2325" transform="translate(304.20000000000005, 67.60000000000001) scale(1.3)" fill="rgba(64, 65, 152, 1)"></use><use xlink:href="#SvgjsG2325" transform="translate(304.20000000000005, 101.4) scale(1.3)" fill="rgba(64, 65, 152, 1)"></use><use xlink:href="#SvgjsG2320" transform="translate(304.20000000000005, 135.20000000000002) scale(1.3)" fill="rgba(64, 65, 152, 1)"></use><use xlink:href="#SvgjsG2319" transform="translate(304.20000000000005, 169.00000000000003) scale(1.3)" fill="rgba(64, 65, 152, 1)"></use><use xlink:href="#SvgjsG2321" transform="translate(304.20000000000005, 202.8) scale(1.3)" fill="rgba(64, 65, 152, 1)"></use><use xlink:href="#SvgjsG2323" transform="translate(304.20000000000005, 236.60000000000002) scale(1.3)" fill="rgba(64, 65, 152, 1)"></use><use xlink:href="#SvgjsG2324" transform="translate(304.20000000000005, 270.40000000000003) scale(1.3)" fill="rgba(64, 65, 152, 1)"></use><use xlink:href="#SvgjsG2324" transform="translate(304.20000000000005, 304.20000000000005) scale(1.3)" fill="rgba(64, 65, 152, 1)"></use></g></defs></svg>