<svg xmlns="http://www.w3.org/2000/svg" version="1.1" xmlns:xlink="http://www.w3.org/1999/xlink" xmlns:svgjs="http://svgjs.dev/svgjs" width="1440" height="560" preserveAspectRatio="none" viewBox="0 0 1440 560"><g mask="url(&quot;#SvgjsMask1008&quot;)" fill="none"><rect width="1440" height="560" x="0" y="0" fill="rgba(241, 243, 245, 1)"></rect><path d="M -193.67321631568183,122 C -121.67,185.4 22.33,444.2 166.32678368431817,439 C 310.33,433.8 382.33,111.2 526.3267836843181,96 C 670.33,80.8 742.33,328.4 886.3267836843181,363 C 1030.33,397.6 1102.33,263.6 1246.3267836843181,269 C 1390.33,274.4 1567.59,405.6 1606.3267836843181,390 C 1645.06,374.4 1473.27,230.8 1440,191" stroke="rgba(64, 65, 152, 1)" stroke-width="2"></path><path d="M -319.60626692723963,387 C -247.61,333.8 -103.61,100 40.39373307276037,121 C 184.39,142 256.39,483.6 400.39373307276037,492 C 544.39,500.4 616.39,163.2 760.3937330727604,163 C 904.39,162.8 976.39,476 1120.3937330727604,491 C 1264.39,506 1416.47,260.4 1480.3937330727604,238 C 1544.31,215.6 1448.08,350.8 1440,379" stroke="rgba(64, 65, 152, 1)" stroke-width="2"></path><path d="M -251.8242188134194,251 C -179.82,275.6 -35.82,374 108.1757811865806,374 C 252.18,374 324.18,256 468.1757811865806,251 C 612.18,246 684.18,362.6 828.1757811865806,349 C 972.18,335.4 1044.18,181.2 1188.1757811865805,183 C 1332.18,184.8 1497.81,358 1548.1757811865805,358 C 1598.54,358 1461.64,218 1440,183" stroke="rgba(64, 65, 152, 1)" stroke-width="2"></path></g><defs><mask id="SvgjsMask1008"><rect width="1440" height="560" fill="#ffffff"></rect></mask></defs></svg>