<svg xmlns="http://www.w3.org/2000/svg" version="1.1" xmlns:xlink="http://www.w3.org/1999/xlink" xmlns:svgjs="http://svgjs.dev/svgjs" width="1440" height="560" preserveAspectRatio="none" viewBox="0 0 1440 560"><g mask="url(&quot;#SvgjsMask1069&quot;)" fill="none"><path d="M1041.3048935296606 396.4421156823003L1079.361721986653 474.47017726599626 1177.3754001337009 378.37090378865963z" fill="rgba(250, 209, 232, 0.6)" class="triangle-float1"></path><path d="M218.2,502.134C275.042,499.878,325.141,466.346,352.378,416.403C378.469,368.562,375.857,310.83,348.103,263.935C320.877,217.932,271.655,189.367,218.2,189.687C165.29,190.004,119.691,221.043,90.962,265.475C59.041,314.843,36.377,376.058,64.216,427.838C93.141,481.637,157.166,504.556,218.2,502.134" fill="rgba(250, 209, 232, 0.6)" class="triangle-float3"></path><path d="M848.641,579.986C878.697,579.796,903.402,559.295,918.718,533.433C934.385,506.978,942.624,474.213,926.942,447.767C911.493,421.713,878.882,413.527,848.641,415.254C821.535,416.802,798.43,432.639,784.435,455.904C769.928,480.02,764.081,509.332,777.015,534.327C790.962,561.279,818.295,580.178,848.641,579.986" fill="rgba(250, 209, 232, 0.6)" class="triangle-float1"></path><path d="M-16.438,375.321C-2.365,374.23,9.003,365.671,16.732,353.86C25.503,340.456,33.126,324.529,26.275,310.049C18.611,293.851,1.478,283.362,-16.438,283.753C-33.78,284.132,-47.43,296.788,-56.036,311.848C-64.564,326.77,-68.994,345.218,-59.897,359.8C-51.17,373.788,-32.876,376.595,-16.438,375.321" fill="rgba(250, 209, 232, 0.6)" class="triangle-float3"></path><path d="M940.5085991395148 158.46676226435608L890.6626920525696 123.56428237317634 863.2319257592726 215.7843829491839z" fill="rgba(250, 209, 232, 0.6)" class="triangle-float2"></path><path d="M619.7948418030757 462.09681114788367L719.94592924073 442.62941181127366 700.47852990412 342.4783243736192 600.3274424664656 361.94572371022923z" fill="rgba(250, 209, 232, 0.6)" class="triangle-float2"></path><path d="M370.594,421.285C397.059,421.963,423.581,410.484,436.476,387.363C449.095,364.735,443.071,337.396,429.783,315.154C416.888,293.569,395.736,277.312,370.594,277.083C345.085,276.851,322.025,291.83,309.508,314.058C297.223,335.873,297.92,362.375,310.313,384.129C322.836,406.111,345.303,420.637,370.594,421.285" fill="rgba(250, 209, 232, 0.6)" class="triangle-float3"></path></g><defs><mask id="SvgjsMask1069"><rect width="1440" height="560" fill="#ffffff"></rect></mask><style>
                @keyframes float1 {
                    0%{transform: translate(0, 0)}
                    50%{transform: translate(-10px, 0)}
                    100%{transform: translate(0, 0)}
                }

                .triangle-float1 {
                    animation: float1 5s infinite;
                }

                @keyframes float2 {
                    0%{transform: translate(0, 0)}
                    50%{transform: translate(-5px, -5px)}
                    100%{transform: translate(0, 0)}
                }

                .triangle-float2 {
                    animation: float2 4s infinite;
                }

                @keyframes float3 {
                    0%{transform: translate(0, 0)}
                    50%{transform: translate(0, -10px)}
                    100%{transform: translate(0, 0)}
                }

                .triangle-float3 {
                    animation: float3 6s infinite;
                }
            </style></defs></svg>