<svg xmlns="http://www.w3.org/2000/svg" version="1.1" xmlns:xlink="http://www.w3.org/1999/xlink" xmlns:svgjs="http://svgjs.dev/svgjs" width="1440" height="250" preserveAspectRatio="none" viewBox="0 0 1440 250"><g mask="url(&quot;#SvgjsMask1003&quot;)" fill="none"><rect width="1440" height="250" x="0" y="0" fill="rgba(126, 125, 202, 1)"></rect><path d="M17 250L267 0L478.5 0L228.5 250z" fill="url(&quot;#SvgjsLinearGradient1004&quot;)"></path><path d="M278.6 250L528.6 0L704.1 0L454.1 250z" fill="url(&quot;#SvgjsLinearGradient1004&quot;)"></path><path d="M514.2 250L764.2 0L1038.7 0L788.7 250z" fill="url(&quot;#SvgjsLinearGradient1004&quot;)"></path><path d="M725.8000000000001 250L975.8000000000001 0L1169.3000000000002 0L919.3000000000001 250z" fill="url(&quot;#SvgjsLinearGradient1004&quot;)"></path><path d="M1422 250L1172 0L1002.5 0L1252.5 250z" fill="url(&quot;#SvgjsLinearGradient1005&quot;)"></path><path d="M1175.4 250L925.4000000000001 0L767.9000000000001 0L1017.9000000000001 250z" fill="url(&quot;#SvgjsLinearGradient1005&quot;)"></path><path d="M953.8 250L703.8 0L639.3 0L889.3 250z" fill="url(&quot;#SvgjsLinearGradient1005&quot;)"></path><path d="M703.1999999999999 250L453.19999999999993 0L384.19999999999993 0L634.1999999999999 250z" fill="url(&quot;#SvgjsLinearGradient1005&quot;)"></path><path d="M1302.107030984766 250L1440 112.10703098476586L1440 250z" fill="url(&quot;#SvgjsLinearGradient1004&quot;)"></path><path d="M0 250L137.89296901523414 250L 0 112.10703098476586z" fill="url(&quot;#SvgjsLinearGradient1005&quot;)"></path></g><defs><mask id="SvgjsMask1003"><rect width="1440" height="250" fill="#ffffff"></rect></mask><linearGradient x1="0%" y1="100%" x2="100%" y2="0%" id="SvgjsLinearGradient1004"><stop stop-color="rgba(15, 70, 185, 0.2)" offset="0"></stop><stop stop-opacity="0" stop-color="rgba(15, 70, 185, 0.2)" offset="0.66"></stop></linearGradient><linearGradient x1="100%" y1="100%" x2="0%" y2="0%" id="SvgjsLinearGradient1005"><stop stop-color="rgba(15, 70, 185, 0.2)" offset="0"></stop><stop stop-opacity="0" stop-color="rgba(15, 70, 185, 0.2)" offset="0.66"></stop></linearGradient></defs></svg>