<svg xmlns="http://www.w3.org/2000/svg" version="1.1" xmlns:xlink="http://www.w3.org/1999/xlink" xmlns:svgjs="http://svgjs.dev/svgjs" width="1440" height="560" preserveAspectRatio="none" viewBox="0 0 1440 560"><g mask="url(&quot;#SvgjsMask1002&quot;)" fill="none"><rect width="1440" height="560" x="0" y="0" fill="url(&quot;#SvgjsLinearGradient1003&quot;)"></rect><path d="M0 0L33.74 0L0 179.24z" fill="rgba(255, 255, 255, .1)"></path><path d="M0 179.24L33.74 0L239.13 0L0 179.56z" fill="rgba(255, 255, 255, .075)"></path><path d="M0 179.56L239.13 0L714.19 0L0 316.21000000000004z" fill="rgba(255, 255, 255, .05)"></path><path d="M0 316.21000000000004L714.19 0L837.9100000000001 0L0 461.69000000000005z" fill="rgba(255, 255, 255, .025)"></path><path d="M1440 560L961.47 560L1440 503.08z" fill="rgba(0, 0, 0, .1)"></path><path d="M1440 503.08L961.47 560L768.04 560L1440 227.57999999999998z" fill="rgba(0, 0, 0, .075)"></path><path d="M1440 227.57999999999998L768.04 560L698.17 560L1440 212.46999999999997z" fill="rgba(0, 0, 0, .05)"></path><path d="M1440 212.46999999999997L698.17 560L459.41999999999996 560L1440 113.83999999999997z" fill="rgba(0, 0, 0, .025)"></path></g><defs><mask id="SvgjsMask1002"><rect width="1440" height="560" fill="#ffffff"></rect></mask><linearGradient x1="15.28%" y1="-39.29%" x2="84.72%" y2="139.29%" gradientUnits="userSpaceOnUse" id="SvgjsLinearGradient1003"><stop stop-color="#0e2a47" offset="0"></stop><stop stop-color="rgba(64, 65, 152, 0)" offset="1"></stop></linearGradient></defs></svg>