<svg xmlns="http://www.w3.org/2000/svg" version="1.1" xmlns:xlink="http://www.w3.org/1999/xlink" xmlns:svgjs="http://svgjs.dev/svgjs" width="1440" height="560" preserveAspectRatio="none" viewBox="0 0 1440 560"><g mask="url(&quot;#SvgjsMask1001&quot;)" fill="none"><rect width="1440" height="560" x="0" y="0" fill="rgba(64, 65, 152, 1)"></rect><path d="M0,638.13C120.221,632.386,233.71,586.135,332.537,517.438C428.898,450.456,511.405,362.356,554.028,253.016C595.375,146.95,602.996,26.276,565.968,-81.374C531.754,-180.842,440.548,-244.368,359.769,-311.742C290.549,-369.475,207.255,-397.244,130.532,-444.552C19.716,-512.882,-64.981,-683.007,-191.31,-651.54C-315.535,-620.597,-301.973,-428.899,-369.343,-320.038C-422.915,-233.473,-523.06,-177.69,-545.948,-78.495C-569.577,23.909,-526.137,125.741,-495.392,226.238C-460.193,341.294,-446.123,473.296,-353.605,550.22C-258.283,629.476,-123.826,644.046,0,638.13" fill="#33347a"></path><path d="M1440 1099.192C1544.085 1085.304 1648.218 1077.809 1740.054 1026.892 1836.1390000000001 973.62 1922.4270000000001 900.929 1973.2649999999999 803.534 2025.623 703.227 2051.966 586.033 2027.88 475.476 2004.489 368.106 1909.379 298.261 1843.953 209.973 1772.112 113.029 1741.208-37.66999999999996 1624.608-68.71600000000001 1507.606-99.86900000000003 1408.248 22.821000000000026 1294.246 63.605999999999995 1188.907 101.29199999999997 1061.343 84.524 980.4 161.755 897.491 240.863 855.157 362.348 861.212 476.783 866.907 584.43 976.3109999999999 653.762 1011.817 755.545 1052.836 873.134 986.5360000000001 1036.5230000000001 1083.662 1114.473 1178.299 1190.425 1319.72 1115.241 1440 1099.192" fill="#4f50b5"></path></g><defs><mask id="SvgjsMask1001"><rect width="1440" height="560" fill="#ffffff"></rect></mask></defs></svg>